<svg xmlns="http://www.w3.org/2000/svg" width="36" height="32" viewBox="0 0 36 32">
  <path id="Icon_awesome-cat" data-name="Icon awesome-cat" d="M20.432,12.917A13.793,13.793,0,0,0,9,18.647v-5.73a6.589,6.589,0,0,0-6.75-6.4A2.194,2.194,0,0,0,0,8.65a2.194,2.194,0,0,0,2.25,2.133A2.2,2.2,0,0,1,4.5,12.917V29.983A4.392,4.392,0,0,0,9,34.25H21.375A1.1,1.1,0,0,0,22.5,33.183V32.117a2.194,2.194,0,0,0-2.25-2.133H18l9-6.4v9.6a1.1,1.1,0,0,0,1.125,1.067h2.25A1.1,1.1,0,0,0,31.5,33.183V19.441a9.366,9.366,0,0,1-2.25.3,8.909,8.909,0,0,1-8.818-6.827ZM31.5,6.517H27L22.5,2.25v8.96a6.582,6.582,0,0,0,6.75,6.4A6.582,6.582,0,0,0,36,11.21V2.25ZM26.438,11.85a1.068,1.068,0,1,1,1.125-1.067A1.1,1.1,0,0,1,26.438,11.85Zm5.625,0a1.068,1.068,0,1,1,1.125-1.067A1.1,1.1,0,0,1,32.063,11.85Z" transform="translate(0 -2.25)" fill="#32231b"/>
</svg>
