<?xml version="1.0" encoding="utf-8"?>
<!-- Generator: Adobe Illustrator 24.2.3, SVG Export Plug-In . SVG Version: 6.00 Build 0)  -->
<svg version="1.1" id="レイヤー_1" xmlns="http://www.w3.org/2000/svg" xmlns:xlink="http://www.w3.org/1999/xlink" x="0px"
	 y="0px" viewBox="0 0 141.7 73.7" style="enable-background:new 0 0 141.7 73.7;" xml:space="preserve">
<style type="text/css">
	.st0{fill:#F3F1EB;}
	.st1{fill:#231815;}
	.st2{fill:#E62C2F;}
	.st3{fill:none;}
</style>
<g>
	<rect x="-0.2" y="0.1" class="st0" width="141.9" height="73.7"/>
	<g>
		<path class="st1" d="M124.8,54.2v-3.1h1.6v-1.3h-1.6v-2.6h-1.4v2.6h-1.6v1.3h1.6v3.1h-2v1.3h5.2v-1.3H124.8z M122.1,52.3
			c-0.2-0.2-0.8-0.8-1.3-1.1c0.4-0.6,0.8-1.2,1-1.9l-0.7-0.5l-0.2,0h-0.2v-1.6h-1.3v1.6h-1.2v1.2h2c-0.6,1-1.4,1.8-2.4,2.3
			c0.2,0.3,0.5,0.9,0.6,1.3c0.3-0.2,0.7-0.4,1-0.7v2.9h1.3v-3.2c0.2,0.3,0.5,0.6,0.6,0.8L122.1,52.3z M114.7,52.9v-1.2h-7.5v1.2h1.9
			c-0.1,0.4-0.3,0.9-0.5,1.4c-0.5,0-1,0-1.4,0l0.2,1.3c1.5-0.1,3.7-0.2,5.8-0.3c0.1,0.2,0.2,0.4,0.3,0.5l1.2-0.7
			c-0.4-0.6-1.2-1.5-1.9-2.2H114.7z M112.5,52.9l-1,0.5c0.2,0.2,0.5,0.5,0.7,0.7c-0.7,0-1.5,0.1-2.2,0.1c0.2-0.4,0.5-0.9,0.7-1.3
			H112.5z M108.8,51.1h4.2v-0.7c0.5,0.3,1,0.6,1.5,0.8c0.2-0.4,0.5-0.9,0.8-1.2c-1.4-0.5-2.8-1.4-3.8-2.7h-1.4
			c-0.7,1-2.1,2.3-3.6,2.9c0.3,0.3,0.6,0.8,0.8,1.1c0.5-0.2,1-0.5,1.5-0.8V51.1z M109.5,49.9c0.6-0.5,1-0.9,1.4-1.4
			c0.3,0.5,0.9,1,1.4,1.4H109.5z M103.7,50v-1.3h-0.8l0.6-0.5c-0.2-0.3-0.8-0.7-1.1-0.9l-0.9,0.7c0.3,0.2,0.6,0.5,0.9,0.8h-1.1
			c0-0.5,0-0.9,0-1.4h-1.4c0,0.5,0,0.9,0,1.4h-4.4V50h4.4c0.2,3.1,0.8,5.8,2.4,5.8c1,0,1.4-0.4,1.6-2.2c-0.4-0.1-0.8-0.5-1.1-0.8
			c0,1.1-0.1,1.6-0.3,1.6c-0.5,0-1-2-1.2-4.4H103.7z M98.4,52.1h1.3v-1.3h-3.9v1.3h1.2V54c-0.6,0.1-1.2,0.2-1.6,0.2l0.4,1.3
			c1.2-0.2,2.8-0.5,4.2-0.8l-0.1-1.2c-0.5,0.1-1,0.2-1.6,0.3V52.1z M92.5,52.1v-1.2h-1.8v-1h1.7v-1.2h-1.7v-1.5h-1.3v1.5h-0.3
			c0.1-0.3,0.1-0.5,0.2-0.8L88,47.7c-0.1,0.8-0.3,1.5-0.6,2.1v-0.9h-1v-1.6h-1.3v1.6h-1.1v1.2h1c-0.2,1-0.7,2.2-1.2,2.9
			c0.2,0.4,0.5,1,0.6,1.3c0.3-0.4,0.5-0.9,0.7-1.5v3h1.3v-3.7c0.1,0.3,0.2,0.5,0.3,0.7l0.8-0.9c-0.1-0.3-0.8-1.3-1-1.6v-0.2h0.8
			c0,0-0.1,0.1-0.1,0.1c0.3,0.1,0.8,0.5,1,0.7c0.2-0.3,0.3-0.6,0.5-1h0.7v1h-1.9v1.2h1.3c-0.5,0.9-1.2,1.8-2,2.3
			c0.3,0.2,0.7,0.7,0.9,1c0.7-0.5,1.2-1.2,1.7-2v2.4h1.3v-2.4c0.3,0.8,0.7,1.4,1.1,1.9c0.2-0.3,0.7-0.8,0.9-1
			c-0.6-0.5-1.2-1.4-1.5-2.2H92.5z M80.8,53.8v-1.1h-3.5v-0.3H80v-0.9h-2.7v-0.3h3.1v-1h-1.6c0.1-0.2,0.2-0.4,0.4-0.6h1.6v-1.1h-1
			c0.2-0.3,0.4-0.6,0.7-1L79,47.3c-0.1,0.4-0.3,0.9-0.5,1.3l0.3,0.1h-0.6v-1.4H77v1.4h-0.4v-1.4h-1.2v1.4h-0.7l0.4-0.1
			c-0.1-0.3-0.4-0.9-0.6-1.2l-1.1,0.4c0.2,0.3,0.4,0.7,0.5,1h-1.1v1.1h1.7c0.1,0.2,0.2,0.4,0.2,0.6h-1.6v1h3v0.3h-2.6v0.9h2.6v0.3
			h-3.4v1.1H75c-0.7,0.4-1.7,0.7-2.6,0.8c0.3,0.3,0.7,0.8,0.8,1.1c1-0.3,2-0.7,2.8-1.3v1.4h1.3v-1.4c0.8,0.6,1.8,1.1,2.8,1.3
			c0.2-0.4,0.6-0.9,0.9-1.2c-0.9-0.1-1.9-0.4-2.6-0.7H80.8z M77.7,49.7c-0.1,0.2-0.1,0.4-0.2,0.6h-1.5l0.1,0c0-0.2-0.1-0.4-0.2-0.6
			H77.7z M65.9,53.9v-4.4h2.9v-1.4h-7.3v1.4h2.8v4.4H61v1.3h8.3v-1.3H65.9z M57.8,53.1h-2.5v-0.2h2v-1.7h-2v-0.3
			c0.8-0.1,1.5-0.2,2.1-0.3l-0.7-0.7h0.9v-2.3h-7.1v2.7c0,1.4-0.1,3.5-0.9,4.8c0.3,0.1,0.9,0.4,1.2,0.6c0.9-1.5,1.1-3.9,1.1-5.5
			v-0.4h4.7c-1.1,0.2-2.9,0.3-4.4,0.3c0.1,0.2,0.2,0.6,0.2,0.8c0.6,0,1.2,0,1.8,0v0.2h-1.9v1.7h1.9v0.2h-2.3v2.7h1.2v-1.9h1.1v0.4
			c-0.4,0-0.7,0-1,0l0.1,0.9c0.7,0,1.6-0.1,2.5-0.2c0,0.1,0,0.2,0,0.3l0.4-0.1c0.1,0.2,0.1,0.4,0.2,0.5c0.4,0,0.8,0,1.1-0.1
			c0.3-0.1,0.4-0.4,0.4-0.8V53.1z M56.4,48.9h-4.5v-0.3h4.5V48.9z M56.2,52.2h-0.8v-0.3h0.8V52.2z M53.4,51.8h0.8v0.3h-0.8V51.8z
			 M55.6,54.1c0,0.1,0,0.1,0.1,0.2l-0.2,0v-0.4h1.3v0.9c0,0.1,0,0.1-0.1,0.1c0-0.3-0.1-0.7-0.3-1L55.6,54.1z M45,52.9h1.2v-1.1h-2.6
			V51h1.6v-0.4c0.4,0.3,0.9,0.6,1.3,0.8c0.2-0.4,0.5-0.8,0.9-1.2c-1.4-0.6-2.8-1.7-3.8-3.1h-1.4c-0.7,1.1-2.1,2.4-3.6,3.2
			c0.3,0.3,0.7,0.8,0.8,1.1c0.4-0.2,0.9-0.5,1.3-0.8V51h1.6v0.7h-2.6v1.1h1.1l-0.7,0.3c0.3,0.4,0.5,0.9,0.7,1.3h-1.6v1.1h7.7v-1.1
			h-1.8c0.3-0.3,0.6-0.8,0.9-1.2L45,52.9z M41.6,49.9c0.5-0.5,1-1,1.3-1.4c0.3,0.5,0.8,1,1.4,1.4H41.6z M44.5,52.9
			c-0.2,0.4-0.5,1-0.8,1.4l0.5,0.2h-0.7v-1.6H44.5z M42.2,52.9v1.6h-0.9l0.7-0.3c-0.1-0.4-0.4-0.9-0.7-1.3H42.2z M35.8,48.9v-1.3
			h-8.2v1.3H30v0.8h-2.1v6h1.3v-0.5h5v0.5h1.3v-6h-2.2v-0.8H35.8z M30.1,50.9c0,0.5-0.1,1.1-0.9,1.6v-1.6H30.1z M29.2,54.1v-1.2
			c0.2,0.2,0.5,0.4,0.6,0.6c1.2-0.6,1.4-1.7,1.5-2.6H32v0.7c0,1,0.2,1.4,1.2,1.4h0.7c0.1,0,0.2,0,0.3,0v1H29.2z M34.2,51.8
			c-0.1-0.1-0.2-0.1-0.3-0.2c0,0.3-0.1,0.3-0.2,0.3h-0.3c-0.1,0-0.2,0-0.2-0.3v-0.7h1V51.8z M32,49.7h-0.7v-0.8H32V49.7z M21.3,48.8
			v-1.5h-1.4v1.5h-3.1v4.7h1.3V53h1.7v2.8h1.4V53H23v0.4h1.4v-4.7H21.3z M18.2,50.1h1.7v1.7h-1.7V50.1z M21.3,50.1H23v1.7h-1.7V50.1
			z"/>
		<path class="st1" d="M138.7,25.2l2.8-2.8c-0.7-0.8-1.7-1.5-2.9-1.9c-1.2-0.4-2.4-0.6-3.6-0.6c-1.3,0-2.6,0.2-3.7,0.6
			c-1.1,0.4-2.1,1-3,1.8s-1.5,1.7-2,2.9c-0.5,1.1-0.7,2.4-0.7,3.8c0,1.3,0.2,2.6,0.7,3.7c0.5,1.1,1.1,2.1,2,2.9
			c0.8,0.8,1.8,1.4,2.9,1.9c1.1,0.4,2.4,0.7,3.7,0.7c1.5,0,2.8-0.3,3.9-0.8c1.1-0.5,2.1-1.2,2.8-2.1l-2.9-2.7
			c-0.4,0.5-0.9,0.9-1.5,1.3c-0.6,0.3-1.3,0.5-2.2,0.5c-0.7,0-1.4-0.1-2-0.4c-0.6-0.3-1.1-0.6-1.6-1.1s-0.8-1-1-1.7
			c-0.2-0.6-0.4-1.4-0.4-2.1c0-0.8,0.1-1.5,0.4-2.1c0.2-0.6,0.6-1.2,1-1.7c0.4-0.5,1-0.8,1.6-1.1s1.3-0.4,2-0.4c0.7,0,1.3,0.1,2,0.4
			C137.7,24.3,138.3,24.7,138.7,25.2"/>
		<path class="st1" d="M85.5,30.5c0-3.4-0.1-6.8-0.1-10.2h4.1v17.2h-4.7c-2.1-3.5-4.3-6.9-6.4-10.4c-0.2-0.4-0.6-0.2-0.6,0.2
			c0,3.4,0.1,6.8,0.1,10.2h-4.1V20.3h4.8c2.1,3.5,4.3,6.9,6.4,10.4C85.1,31,85.5,30.9,85.5,30.5"/>
		<path class="st1" d="M110,28c2.4-2.6,4.8-5.1,7.3-7.7h-5.2c-1.9,2.1-3.8,4.3-5.7,6.4c-0.3,0.3-0.6,0.2-0.6-0.2v-6.2h-4.1v17.2h4.1
			v-7.1c0-0.4,0.3-0.5,0.6-0.2c2,2.4,3.9,4.8,5.9,7.3h5.5c-2.6-3-5.1-6-7.7-9.1C109.9,28.3,109.9,28.2,110,28"/>
		<path class="st2" d="M56.6,40.2H-0.1v-2.7c7.6-4.5,15-10.4,19.9-10.4c0.1,0,0.1,0,0.2,0c5.7,0.2,5.7,8.4,11.4,8.6
			c0.1,0,0.1,0,0.2,0c6.1,0,15.8-8.8,25-13.2V40.2"/>
		<path class="st2" d="M56.6,20.3c-7.6,4.5-15,10.4-19.9,10.4c-0.1,0-0.1,0-0.2,0c-5.7-0.2-5.7-8.4-11.4-8.6c-0.1,0-0.1,0-0.2,0
			c-6.1,0-15.8,8.8-25,13.2V17.6h56.7V20.3z"/>
	</g>
</g>
<polyline class="st3" points="141,0.7 141,73.4 0.2,73.4 0.2,0.7 "/>
</svg>
