<?xml version="1.0" standalone="no"?>
<!DOCTYPE svg PUBLIC "-//W3C//DTD SVG 20010904//EN"
 "http://www.w3.org/TR/2001/REC-SVG-20010904/DTD/svg10.dtd">
<svg version="1.0" xmlns="http://www.w3.org/2000/svg"
 width="133.000000pt" height="69.000000pt" viewBox="0 0 133.000000 69.000000"
 preserveAspectRatio="xMidYMid meet">

<g transform="translate(0.000000,69.000000) scale(0.100000,-0.100000)"
fill="#000000" stroke="none">
<path d="M958 667 c-149 -43 -226 -187 -166 -312 21 -44 22 -47 6 -105 -8 -32
-13 -61 -10 -64 3 -3 31 8 62 25 l57 30 58 -17 c133 -38 294 28 341 142 18 43
18 115 0 158 -19 45 -80 105 -132 128 -57 25 -156 31 -216 15z m207 -41 c75
-35 135 -115 135 -181 0 -62 -57 -143 -124 -177 -55 -28 -166 -35 -225 -15
-42 15 -47 15 -84 -4 -21 -11 -41 -19 -43 -17 -2 2 1 21 7 43 9 32 8 44 -9 74
-43 78 -36 153 20 217 52 59 109 82 208 83 48 1 78 -5 115 -23z"/>
<path d="M904 455 c-8 -20 4 -35 27 -35 14 0 19 7 19 25 0 18 -5 25 -20 25
-11 0 -23 -7 -26 -15z"/>
<path d="M1024 455 c-4 -9 -2 -21 4 -27 15 -15 44 -1 40 19 -4 23 -36 29 -44
8z"/>
<path d="M1140 445 c0 -22 4 -26 23 -23 14 2 22 10 22 23 0 13 -8 21 -22 23
-19 3 -23 -1 -23 -23z"/>
<path d="M631 416 c-18 -33 -91 -45 -127 -21 -47 30 -59 -11 -24 -80 11 -22
20 -43 20 -48 0 -5 -21 -6 -47 -3 -209 25 -270 17 -355 -45 -65 -49 -87 -76
-88 -110 0 -49 19 -61 126 -75 54 -7 114 -15 132 -19 26 -6 32 -4 32 9 0 14
23 15 233 9 177 -5 236 -3 241 6 11 18 -13 41 -43 41 -53 0 -58 12 -61 145 -1
17 2 60 6 97 7 75 0 118 -20 118 -7 0 -18 -11 -25 -24z m27 -128 c-8 -53 -8
-79 2 -108 11 -32 11 -42 0 -55 -19 -22 13 -54 62 -61 21 -4 38 -10 38 -15 0
-9 -267 -4 -410 7 -81 6 -84 6 -70 -11 14 -17 13 -18 -20 -12 -19 4 -75 11
-124 17 -95 10 -100 12 -111 48 -6 20 2 32 45 74 29 27 71 58 94 69 59 26 159
33 221 17 60 -16 135 -12 135 8 0 7 -11 34 -25 60 -28 53 -24 72 11 49 37 -24
108 -11 131 24 l17 26 7 -34 c4 -18 2 -65 -3 -103z"/>
</g>
</svg>
